PathFileType	4	(X/Y/Z)	E:/New_biomech_experiments/Elbow Flexion/Shreyas_25_06_24_elbow_flexion/Session 2024-06-26/Shreyas_ElbFlex_pp_t02_26_06_24.trc	
DataRate	CameraRate	NumFrames	NumMarkers	Units	OrigDataRate	OrigDataStartFrame	OrigNumFrames	
120.00	120.00	24	19	m	120.00	1209	4832	
Frame#	Time	LFHD			LBHD			T10			C7			RBHD			PRSHO			RSHO			STRN			RFHD			CLAV			RWRA			RWRB			ARSHO			MRELB			RFRM			RHAND			RELB			RUPA			MRHAND			
		X1	Y1	Z1	X2	Y2	Z2	X3	Y3	Z3	X4	Y4	Z4	X5	Y5	Z5	X6	Y6	Z6	X7	Y7	Z7	X8	Y8	Z8	X9	Y9	Z9	X10	Y10	Z10	X11	Y11	Z11	X12	Y12	Z12	X13	Y13	Z13	X14	Y14	Z14	X15	Y15	Z15	X16	Y16	Z16	X17	Y17	Z17	X18	Y18	Z18	X19	Y19	Z19	

1209	10.067	0.07659	1.83887	-0.04929	-0.02793	1.73650	-0.06594	-0.07758	1.33790	-0.02049	-0.05152	1.54817	-0.00650	-0.04033	1.75610	0.07056	-0.08114	1.45123	0.11972	0.03751	1.50090	0.20334	0.18094	1.34146	-0.00975	0.06227	1.82355	0.07820	0.14493	1.46652	-0.00186	0.16269	0.94378	0.18682	0.15076	0.93064	0.28502	0.12323	1.45613	0.11017	-0.01719	1.13712	0.16098	0.09853	1.05028	0.27145	0.24313	0.83723	0.18864	0.01165	1.17547	0.26846	0.01729	1.30719	0.24849	0.19464	0.84390	0.29961 
1210	10.075	0.07660	1.83887	-0.04935	-0.02793	1.73650	-0.06595	-0.07758	1.33790	-0.02047	-0.05153	1.54817	-0.00650	-0.04029	1.75612	0.07054	-0.08111	1.45123	0.11973	0.03756	1.50091	0.20333	0.18094	1.34146	-0.00979	0.06232	1.82356	0.07814	0.14492	1.46652	-0.00191	0.16236	0.94340	0.18687	0.15041	0.93033	0.28508	0.12325	1.45613	0.11014	-0.01715	1.13713	0.16099	0.09845	1.05008	0.27148	0.24258	0.83669	0.18871	0.01178	1.17545	0.26847	0.01738	1.30720	0.24849	0.19409	0.84349	0.29969 
1211	10.083	0.07661	1.83886	-0.04942	-0.02794	1.73650	-0.06596	-0.07758	1.33789	-0.02045	-0.05153	1.54816	-0.00649	-0.04025	1.75614	0.07053	-0.08108	1.45122	0.11974	0.03762	1.50093	0.20333	0.18093	1.34146	-0.00983	0.06238	1.82357	0.07809	0.14492	1.46651	-0.00195	0.16204	0.94303	0.18692	0.15005	0.93002	0.28515	0.12326	1.45614	0.11010	-0.01710	1.13713	0.16101	0.09836	1.04988	0.27150	0.24202	0.83614	0.18879	0.01190	1.17544	0.26847	0.01748	1.30721	0.24848	0.19354	0.84307	0.29977 
1212	10.092	0.07662	1.83885	-0.04948	-0.02796	1.73650	-0.06597	-0.07759	1.33788	-0.02043	-0.05154	1.54815	-0.00649	-0.04021	1.75616	0.07052	-0.08106	1.45122	0.11976	0.03767	1.50095	0.20333	0.18093	1.34146	-0.00986	0.06243	1.82358	0.07803	0.14490	1.46651	-0.00199	0.16171	0.94265	0.18698	0.14969	0.92970	0.28522	0.12328	1.45615	0.11006	-0.01706	1.13714	0.16102	0.09828	1.04968	0.27152	0.24144	0.83558	0.18888	0.01203	1.17543	0.26847	0.01757	1.30722	0.24847	0.19298	0.84265	0.29986 
1213	10.100	0.07663	1.83885	-0.04955	-0.02797	1.73650	-0.06599	-0.07759	1.33787	-0.02041	-0.05155	1.54815	-0.00648	-0.04017	1.75619	0.07051	-0.08104	1.45122	0.11977	0.03772	1.50095	0.20334	0.18092	1.34146	-0.00990	0.06248	1.82359	0.07797	0.14489	1.46651	-0.00204	0.16139	0.94227	0.18704	0.14932	0.92937	0.28529	0.12329	1.45616	0.11003	-0.01701	1.13715	0.16102	0.09819	1.04948	0.27155	0.24086	0.83500	0.18898	0.01215	1.17541	0.26847	0.01767	1.30723	0.24847	0.19240	0.84222	0.29996 
1214	10.108	0.07665	1.83884	-0.04962	-0.02799	1.73649	-0.06601	-0.07760	1.33787	-0.02038	-0.05156	1.54814	-0.00648	-0.04014	1.75621	0.07049	-0.08102	1.45121	0.11978	0.03776	1.50094	0.20334	0.18091	1.34146	-0.00993	0.06254	1.82361	0.07791	0.14487	1.46651	-0.00208	0.16106	0.94189	0.18711	0.14895	0.92904	0.28536	0.12330	1.45618	0.10999	-0.01696	1.13716	0.16102	0.09809	1.04927	0.27158	0.24027	0.83443	0.18909	0.01228	1.17539	0.26846	0.01776	1.30724	0.24846	0.19181	0.84179	0.30006 
1215	10.117	0.07666	1.83883	-0.04968	-0.02801	1.73648	-0.06603	-0.07760	1.33786	-0.02036	-0.05158	1.54813	-0.00647	-0.04010	1.75624	0.07047	-0.08100	1.45121	0.11980	0.03781	1.50093	0.20335	0.18091	1.34147	-0.00996	0.06258	1.82362	0.07785	0.14486	1.46650	-0.00212	0.16074	0.94150	0.18719	0.14856	0.92870	0.28544	0.12331	1.45619	0.10996	-0.01690	1.13717	0.16102	0.09799	1.04906	0.27160	0.23969	0.83385	0.18921	0.01241	1.17537	0.26845	0.01786	1.30725	0.24845	0.19121	0.84134	0.30017 
1216	10.125	0.07667	1.83882	-0.04975	-0.02804	1.73647	-0.06605	-0.07761	1.33785	-0.02033	-0.05159	1.54812	-0.00646	-0.04007	1.75627	0.07045	-0.08098	1.45120	0.11981	0.03785	1.50092	0.20336	0.18090	1.34147	-0.00999	0.06263	1.82364	0.07779	0.14484	1.46650	-0.00216	0.16041	0.94111	0.18726	0.14817	0.92836	0.28553	0.12331	1.45621	0.10992	-0.01683	1.13717	0.16101	0.09789	1.04884	0.27164	0.23911	0.83327	0.18934	0.01255	1.17535	0.26844	0.01796	1.30726	0.24844	0.19059	0.84088	0.30028 
1217	10.133	0.07668	1.83881	-0.04981	-0.02807	1.73645	-0.06607	-0.07762	1.33784	-0.02031	-0.05161	1.54811	-0.00646	-0.04004	1.75630	0.07043	-0.08096	1.45120	0.11982	0.03789	1.50093	0.20337	0.18089	1.34148	-0.01002	0.06267	1.82366	0.07773	0.14482	1.46650	-0.00220	0.16007	0.94070	0.18735	0.14776	0.92801	0.28562	0.12332	1.45622	0.10989	-0.01675	1.13718	0.16100	0.09778	1.04861	0.27167	0.23852	0.83268	0.18948	0.01268	1.17533	0.26842	0.01806	1.30727	0.24843	0.18996	0.84042	0.30040 
1218	10.142	0.07669	1.83880	-0.04988	-0.02810	1.73644	-0.06610	-0.07763	1.33784	-0.02028	-0.05163	1.54810	-0.00645	-0.04002	1.75633	0.07041	-0.08095	1.45119	0.11984	0.03792	1.50094	0.20337	0.18088	1.34148	-0.01005	0.06270	1.82368	0.07766	0.14480	1.46649	-0.00225	0.15974	0.94029	0.18743	0.14735	0.92766	0.28572	0.12333	1.45623	0.10985	-0.01666	1.13718	0.16098	0.09767	1.04838	0.27170	0.23792	0.83208	0.18963	0.01282	1.17530	0.26840	0.01816	1.30728	0.24841	0.18932	0.83995	0.30052 
1219	10.150	0.07670	1.83879	-0.04994	-0.02812	1.73643	-0.06613	-0.07764	1.33783	-0.02026	-0.05164	1.54809	-0.00644	-0.04000	1.75635	0.07038	-0.08094	1.45119	0.11985	0.03795	1.50096	0.20337	0.18087	1.34149	-0.01008	0.06274	1.82370	0.07760	0.14477	1.46648	-0.00229	0.15940	0.93986	0.18752	0.14693	0.92729	0.28582	0.12333	1.45624	0.10982	-0.01657	1.13718	0.16095	0.09755	1.04814	0.27174	0.23730	0.83147	0.18980	0.01297	1.17527	0.26837	0.01826	1.30728	0.24839	0.18866	0.83947	0.30065 
1220	10.158	0.07671	1.83878	-0.05001	-0.02814	1.73642	-0.06616	-0.07766	1.33782	-0.02023	-0.05166	1.54809	-0.00644	-0.03998	1.75637	0.07035	-0.08092	1.45118	0.11987	0.03798	1.50098	0.20336	0.18086	1.34149	-0.01011	0.06276	1.82372	0.07754	0.14475	1.46647	-0.00234	0.15905	0.93942	0.18762	0.14649	0.92692	0.28592	0.12334	1.45626	0.10979	-0.01647	1.13718	0.16092	0.09742	1.04789	0.27177	0.23667	0.83084	0.18997	0.01312	1.17524	0.26834	0.01836	1.30728	0.24837	0.18799	0.83898	0.30079 
1221	10.167	0.07671	1.83877	-0.05007	-0.02816	1.73641	-0.06619	-0.07767	1.33782	-0.02021	-0.05168	1.54808	-0.00643	-0.03997	1.75639	0.07032	-0.08091	1.45117	0.11988	0.03800	1.50101	0.20335	0.18085	1.34150	-0.01014	0.06279	1.82374	0.07749	0.14472	1.46645	-0.00240	0.15869	0.93897	0.18772	0.14605	0.92653	0.28602	0.12335	1.45627	0.10975	-0.01636	1.13718	0.16088	0.09730	1.04763	0.27180	0.23603	0.83019	0.19015	0.01327	1.17520	0.26831	0.01846	1.30728	0.24834	0.18731	0.83848	0.30094 
1222	10.175	0.07671	1.83877	-0.05013	-0.02817	1.73641	-0.06622	-0.07769	1.33781	-0.02019	-0.05169	1.54807	-0.00643	-0.03995	1.75641	0.07030	-0.08090	1.45117	0.11989	0.03802	1.50106	0.20335	0.18084	1.34150	-0.01017	0.06281	1.82376	0.07743	0.14469	1.46642	-0.00246	0.15831	0.93850	0.18782	0.14560	0.92614	0.28613	0.12335	1.45629	0.10972	-0.01624	1.13717	0.16085	0.09717	1.04736	0.27183	0.23537	0.82954	0.19034	0.01344	1.17516	0.26828	0.01857	1.30728	0.24831	0.18661	0.83797	0.30109 
1223	10.183	0.07670	1.83876	-0.05019	-0.02818	1.73641	-0.06625	-0.07771	1.33781	-0.02017	-0.05171	1.54806	-0.00642	-0.03993	1.75643	0.07028	-0.08089	1.45116	0.11990	0.03803	1.50111	0.20333	0.18083	1.34151	-0.01019	0.06282	1.82378	0.07737	0.14465	1.46639	-0.00253	0.15793	0.93803	0.18793	0.14513	0.92573	0.28623	0.12336	1.45630	0.10968	-0.01612	1.13717	0.16081	0.09704	1.04709	0.27186	0.23471	0.82887	0.19053	0.01361	1.17512	0.26824	0.01867	1.30727	0.24828	0.18589	0.83744	0.30125 
1224	10.192	0.07670	1.83876	-0.05025	-0.02820	1.73641	-0.06628	-0.07773	1.33781	-0.02016	-0.05173	1.54806	-0.00642	-0.03992	1.75644	0.07025	-0.08089	1.45116	0.11992	0.03805	1.50113	0.20332	0.18082	1.34152	-0.01021	0.06284	1.82379	0.07732	0.14462	1.46635	-0.00260	0.15754	0.93754	0.18805	0.14465	0.92530	0.28634	0.12337	1.45632	0.10964	-0.01599	1.13716	0.16077	0.09691	1.04682	0.27190	0.23402	0.82818	0.19073	0.01380	1.17508	0.26820	0.01878	1.30727	0.24825	0.18514	0.83690	0.30141 
1225	10.200	0.07669	1.83875	-0.05031	-0.02822	1.73641	-0.06631	-0.07775	1.33780	-0.02014	-0.05174	1.54805	-0.00642	-0.03991	1.75646	0.07023	-0.08088	1.45116	0.11993	0.03808	1.50114	0.20330	0.18080	1.34153	-0.01023	0.06285	1.82381	0.07727	0.14459	1.46633	-0.00266	0.15714	0.93703	0.18818	0.14415	0.92486	0.28646	0.12337	1.45634	0.10961	-0.01585	1.13715	0.16072	0.09678	1.04653	0.27193	0.23331	0.82747	0.19094	0.01399	1.17504	0.26815	0.01889	1.30726	0.24822	0.18437	0.83634	0.30158 
1226	10.208	0.07668	1.83875	-0.05037	-0.02823	1.73642	-0.06634	-0.07777	1.33780	-0.02012	-0.05176	1.54805	-0.00642	-0.03990	1.75647	0.07021	-0.08087	1.45115	0.11994	0.03810	1.50114	0.20329	0.18079	1.34155	-0.01025	0.06286	1.82383	0.07722	0.14456	1.46631	-0.00271	0.15672	0.93651	0.18831	0.14363	0.92440	0.28658	0.12338	1.45635	0.10957	-0.01570	1.13713	0.16067	0.09665	1.04624	0.27197	0.23256	0.82674	0.19114	0.01418	1.17499	0.26811	0.01901	1.30726	0.24819	0.18357	0.83576	0.30175 
1227	10.217	0.07666	1.83875	-0.05043	-0.02826	1.73641	-0.06637	-0.07778	1.33780	-0.02011	-0.05178	1.54804	-0.00642	-0.03989	1.75649	0.07019	-0.08087	1.45115	0.11995	0.03813	1.50112	0.20330	0.18078	1.34157	-0.01027	0.06287	1.82386	0.07718	0.14453	1.46629	-0.00277	0.15630	0.93598	0.18845	0.14309	0.92393	0.28671	0.12338	1.45637	0.10954	-0.01554	1.13711	0.16063	0.09652	1.04593	0.27201	0.23179	0.82599	0.19136	0.01438	1.17495	0.26807	0.01913	1.30725	0.24816	0.18274	0.83517	0.30193 
1228	10.225	0.07664	1.83875	-0.05049	-0.02830	1.73640	-0.06641	-0.07780	1.33779	-0.02009	-0.05180	1.54804	-0.00642	-0.03989	1.75650	0.07016	-0.08086	1.45115	0.11996	0.03816	1.50111	0.20330	0.18077	1.34160	-0.01028	0.06288	1.82389	0.07713	0.14450	1.46625	-0.00284	0.15585	0.93543	0.18859	0.14255	0.92345	0.28684	0.12339	1.45640	0.10950	-0.01537	1.13709	0.16058	0.09638	1.04561	0.27205	0.23099	0.82521	0.19158	0.01459	1.17490	0.26802	0.01926	1.30724	0.24812	0.18188	0.83456	0.30211 
1229	10.233	0.07663	1.83875	-0.05054	-0.02834	1.73638	-0.06644	-0.07782	1.33779	-0.02008	-0.05181	1.54803	-0.00642	-0.03989	1.75652	0.07014	-0.08086	1.45115	0.11997	0.03819	1.50112	0.20330	0.18075	1.34161	-0.01029	0.06289	1.82392	0.07709	0.14446	1.46622	-0.00290	0.15539	0.93486	0.18873	0.14198	0.92296	0.28698	0.12340	1.45642	0.10947	-0.01520	1.13707	0.16053	0.09624	1.04529	0.27209	0.23017	0.82441	0.19181	0.01481	1.17486	0.26798	0.01940	1.30724	0.24809	0.18099	0.83394	0.30231 
1230	10.242	0.07661	1.83875	-0.05059	-0.02838	1.73637	-0.06648	-0.07784	1.33778	-0.02006	-0.05183	1.54803	-0.00642	-0.03989	1.75653	0.07012	-0.08085	1.45115	0.11998	0.03821	1.50114	0.20330	0.18074	1.34162	-0.01031	0.06290	1.82396	0.07704	0.14443	1.46620	-0.00296	0.15492	0.93428	0.18888	0.14140	0.92246	0.28713	0.12340	1.45644	0.10943	-0.01503	1.13704	0.16048	0.09609	1.04495	0.27214	0.22931	0.82358	0.19204	0.01503	1.17481	0.26794	0.01954	1.30723	0.24806	0.18007	0.83330	0.30252 
1231	10.250	0.07660	1.83875	-0.05064	-0.02841	1.73637	-0.06651	-0.07786	1.33778	-0.02005	-0.05185	1.54802	-0.00642	-0.03989	1.75655	0.07010	-0.08085	1.45114	0.11999	0.03823	1.50116	0.20330	0.18072	1.34163	-0.01033	0.06291	1.82399	0.07700	0.14440	1.46618	-0.00301	0.15442	0.93368	0.18904	0.14080	0.92195	0.28727	0.12341	1.45646	0.10940	-0.01485	1.13702	0.16043	0.09595	1.04460	0.27219	0.22841	0.82273	0.19228	0.01527	1.17476	0.26789	0.01969	1.30722	0.24803	0.17912	0.83265	0.30274 
1232	10.258	0.07658	1.83874	-0.05069	-0.02845	1.73637	-0.06655	-0.07788	1.33778	-0.02004	-0.05187	1.54801	-0.00643	-0.03989	1.75656	0.07008	-0.08084	1.45114	0.12000	0.03826	1.50117	0.20330	0.18070	1.34164	-0.01035	0.06292	1.82401	0.07695	0.14438	1.46617	-0.00305	0.15391	0.93306	0.18920	0.14018	0.92144	0.28742	0.12341	1.45648	0.10936	-0.01468	1.13699	0.16039	0.09580	1.04425	0.27224	0.22748	0.82185	0.19253	0.01550	1.17472	0.26785	0.01984	1.30721	0.24799	0.17815	0.83200	0.30297 
